<?xml version="1.0" encoding="utf-8"?>
<!-- Generator: Adobe Illustrator 15.0.2, SVG Export Plug-In . SVG Version: 6.00 Build 0)  -->
<!DOCTYPE svg PUBLIC "-//W3C//DTD SVG 1.1//EN" "http://www.w3.org/Graphics/SVG/1.1/DTD/svg11.dtd">
<svg version="1.1" id="Layer_1" xmlns="http://www.w3.org/2000/svg" xmlns:xlink="http://www.w3.org/1999/xlink" x="0px" y="0px"
	 width="1024px" height="1024px" viewBox="0 0 1024 1024" enable-background="new 0 0 1024 1024" xml:space="preserve">
<g>
	<path d="M649.4,560.2c-12.801,0-23.801,4.8-32.601,14.2C607.8,583.8,603.4,595,603.4,607.8c0,14,4.6,25.2,13.399,34.2
		c8.8,8.8,19.8,13.4,32.601,13.4c13.8,0,25.399-4.601,34.199-13.4c8.801-9,13.4-20.2,13.4-34.2c0-12.8-4.6-24-13.4-33.399
		C674.8,565,663.2,560.2,649.4,560.2z"/>
	<path d="M377.6,405.6H646.4c14,0,25.6-4.399,35-13.2c9.399-9,14.199-20.4,14.199-34.2V238.4c0-13.8-4.8-25.2-14.199-34.2
		c-9.4-8.8-21-13.4-35-13.4H377.6c-14,0-25.399,4.4-34,13.4c-9,9-13.399,20.4-13.399,34.2v119.8c0,14,4.399,25.2,13.399,34.2
		C352.2,401.4,363.6,405.6,377.6,405.6z"/>
	<path d="M407.4,642c8.8-9,13.399-20.2,13.399-34.2c0-12.8-4.6-24-13.399-33.399c-9-9.4-20-14.2-32.801-14.2
		c-13.8,0-25.199,4.8-34.199,14.2C331.4,583.8,327,595,327,607.8c0,14,4.4,25.2,13.4,34.2c9,8.8,20.399,13.4,34.199,13.4
		C387.4,655.4,398.4,650.8,407.4,642z"/>
	<polygon points="385,765.4 351.4,815.8 672.8,815.8 639,765.4 	"/>
	<path d="M819.2,0H204.8C92.2,0,0,92.2,0,204.8v614.4C0,931.8,92.2,1024,204.8,1024h614.4c112.6,0,204.8-92.2,204.8-204.8V204.8
		C1024,92.2,931.8,0,819.2,0z M726.6,896L714.2,877.6H309.6L297.2,896h-72.6l129.2-191.6c-23.8-3-44.2-14-61-33.4
		s-25.2-41.8-25.2-67.6V229c0-27.8,10-51.6,29.8-71.4c19.8-19.8,44-29.6,72.8-29.6H654c28.6,0,52.8,9.8,72.6,29.6
		c19.801,20,29.801,43.8,29.801,71.4v374.4c0,25.6-8.2,48-24.601,66.8C715.6,689,695,700.6,670.2,704.4L799.4,896H726.6z"/>
</g>
</svg>
